<?xml version="1.0" encoding="UTF-8"?><svg xmlns="http://www.w3.org/2000/svg" xmlns:xlink="http://www.w3.org/1999/xlink" contentScriptType="text/ecmascript" width="375pt" zoomAndPan="magnify" contentStyleType="text/css" viewBox="0 0 375 374.999991" height="374.999991pt" preserveAspectRatio="xMidYMid meet" version="1.2"><defs><clipPath xml:id="clip1" id="clip1"><path d="M 116 211 L 258 211 L 258 249 L 116 249 Z M 116 211 "/></clipPath><clipPath xml:id="clip2" id="clip2"><path d="M 116.890625 240.898438 L 187.425781 170.363281 L 257.957031 240.898438 L 187.425781 311.433594 Z M 116.890625 240.898438 "/></clipPath><clipPath xml:id="clip3" id="clip3"><path d="M 116.890625 240.898438 L 187.425781 170.363281 L 257.957031 240.898438 L 187.425781 311.433594 Z M 116.890625 240.898438 "/></clipPath></defs><g xml:id="surface1" id="surface1"><path style=" stroke:none;fill-rule:nonzero;fill:rgb(100%,34.118652%,34.118652%);fill-opacity:1;" d="M 187.402344 311.027344 C 154.394531 311.027344 123.316406 298.179688 99.996094 274.808594 C 76.625 251.484375 63.777344 220.40625 63.777344 187.402344 C 63.777344 154.394531 76.625 123.316406 99.996094 99.996094 C 123.316406 76.625 154.394531 63.777344 187.402344 63.777344 C 220.40625 63.777344 251.484375 76.625 274.808594 99.996094 C 298.179688 123.367188 311.027344 154.394531 311.027344 187.402344 C 311.027344 220.40625 298.179688 251.484375 274.808594 274.808594 C 251.484375 298.179688 220.40625 311.027344 187.402344 311.027344 Z M 187.402344 71.1875 C 156.371094 71.1875 127.167969 83.292969 105.230469 105.230469 C 83.292969 127.167969 71.1875 156.371094 71.1875 187.402344 C 71.1875 218.429688 83.292969 247.632812 105.230469 269.570312 C 127.167969 291.507812 156.371094 303.613281 187.402344 303.613281 C 218.429688 303.613281 247.632812 291.507812 269.570312 269.570312 C 291.507812 247.632812 303.613281 218.429688 303.613281 187.402344 C 303.613281 156.371094 291.507812 127.167969 269.570312 105.230469 C 247.632812 83.292969 218.429688 71.1875 187.402344 71.1875 Z M 187.402344 71.1875 "/><path style=" stroke:none;fill-rule:nonzero;fill:rgb(100%,34.118652%,34.118652%);fill-opacity:1;" d="M 144.617188 140.671875 C 144.015625 140.671875 143.414062 140.699219 142.816406 140.757812 C 142.214844 140.816406 141.621094 140.90625 141.03125 141.023438 C 140.441406 141.140625 139.859375 141.285156 139.28125 141.460938 C 138.707031 141.636719 138.140625 141.839844 137.585938 142.070312 C 137.027344 142.300781 136.484375 142.554688 135.953125 142.839844 C 135.421875 143.125 134.90625 143.433594 134.40625 143.765625 C 133.90625 144.101562 133.425781 144.460938 132.957031 144.839844 C 132.492188 145.222656 132.046875 145.625 131.621094 146.050781 C 131.199219 146.476562 130.792969 146.921875 130.410156 147.386719 C 130.03125 147.851562 129.671875 148.335938 129.335938 148.835938 C 129.003906 149.335938 128.695312 149.851562 128.410156 150.382812 C 128.125 150.914062 127.871094 151.457031 127.640625 152.011719 C 127.410156 152.570312 127.207031 153.136719 127.03125 153.710938 C 126.859375 154.289062 126.710938 154.871094 126.59375 155.460938 C 126.476562 156.050781 126.386719 156.644531 126.328125 157.246094 C 126.269531 157.84375 126.242188 158.445312 126.242188 159.046875 C 126.242188 159.648438 126.269531 160.246094 126.328125 160.847656 C 126.386719 161.445312 126.476562 162.039062 126.59375 162.628906 C 126.710938 163.21875 126.859375 163.804688 127.03125 164.378906 C 127.207031 164.957031 127.410156 165.519531 127.640625 166.078125 C 127.871094 166.632812 128.125 167.175781 128.410156 167.707031 C 128.695312 168.238281 129.003906 168.753906 129.335938 169.253906 C 129.671875 169.753906 130.03125 170.238281 130.410156 170.703125 C 130.792969 171.167969 131.199219 171.613281 131.621094 172.039062 C 132.046875 172.464844 132.492188 172.867188 132.957031 173.25 C 133.425781 173.632812 133.90625 173.988281 134.40625 174.324219 C 134.90625 174.65625 135.421875 174.96875 135.953125 175.25 C 136.484375 175.535156 137.027344 175.792969 137.585938 176.023438 C 138.140625 176.25 138.707031 176.453125 139.28125 176.628906 C 139.859375 176.804688 140.441406 176.949219 141.03125 177.066406 C 141.621094 177.183594 142.214844 177.273438 142.816406 177.332031 C 143.414062 177.390625 144.015625 177.421875 144.617188 177.421875 C 145.21875 177.421875 145.816406 177.390625 146.417969 177.332031 C 147.015625 177.273438 147.609375 177.183594 148.199219 177.066406 C 148.789062 176.949219 149.375 176.804688 149.949219 176.628906 C 150.527344 176.453125 151.089844 176.25 151.648438 176.023438 C 152.203125 175.792969 152.746094 175.535156 153.277344 175.25 C 153.808594 174.96875 154.324219 174.65625 154.824219 174.324219 C 155.324219 173.988281 155.808594 173.632812 156.273438 173.25 C 156.738281 172.867188 157.183594 172.464844 157.609375 172.039062 C 158.035156 171.613281 158.4375 171.167969 158.820312 170.703125 C 159.203125 170.238281 159.558594 169.753906 159.894531 169.253906 C 160.230469 168.753906 160.539062 168.238281 160.820312 167.707031 C 161.105469 167.175781 161.363281 166.632812 161.59375 166.078125 C 161.824219 165.519531 162.023438 164.957031 162.199219 164.378906 C 162.375 163.804688 162.519531 163.21875 162.636719 162.628906 C 162.753906 162.039062 162.84375 161.445312 162.902344 160.847656 C 162.960938 160.246094 162.992188 159.648438 162.992188 159.046875 C 162.992188 158.445312 162.960938 157.84375 162.902344 157.246094 C 162.84375 156.644531 162.753906 156.050781 162.636719 155.460938 C 162.519531 154.871094 162.375 154.289062 162.199219 153.710938 C 162.023438 153.136719 161.824219 152.570312 161.59375 152.011719 C 161.363281 151.457031 161.105469 150.914062 160.820312 150.382812 C 160.539062 149.851562 160.230469 149.335938 159.894531 148.835938 C 159.558594 148.335938 159.203125 147.851562 158.820312 147.386719 C 158.4375 146.921875 158.035156 146.476562 157.609375 146.050781 C 157.183594 145.625 156.738281 145.222656 156.273438 144.839844 C 155.808594 144.460938 155.324219 144.101562 154.824219 143.765625 C 154.324219 143.433594 153.808594 143.125 153.277344 142.839844 C 152.746094 142.554688 152.203125 142.300781 151.648438 142.070312 C 151.089844 141.839844 150.527344 141.636719 149.949219 141.460938 C 149.375 141.285156 148.789062 141.140625 148.199219 141.023438 C 147.609375 140.90625 147.015625 140.816406 146.417969 140.757812 C 145.816406 140.699219 145.21875 140.671875 144.617188 140.671875 Z M 144.617188 140.671875 "/><path style=" stroke:none;fill-rule:nonzero;fill:rgb(100%,34.118652%,34.118652%);fill-opacity:1;" d="M 224.832031 140.671875 C 224.230469 140.671875 223.632812 140.699219 223.03125 140.757812 C 222.433594 140.816406 221.839844 140.90625 221.25 141.023438 C 220.660156 141.140625 220.074219 141.285156 219.5 141.460938 C 218.921875 141.636719 218.359375 141.839844 217.800781 142.070312 C 217.246094 142.300781 216.703125 142.554688 216.171875 142.839844 C 215.640625 143.125 215.125 143.433594 214.625 143.765625 C 214.125 144.101562 213.640625 144.460938 213.175781 144.839844 C 212.710938 145.222656 212.265625 145.625 211.839844 146.050781 C 211.414062 146.476562 211.011719 146.921875 210.628906 147.386719 C 210.246094 147.851562 209.890625 148.335938 209.554688 148.835938 C 209.222656 149.335938 208.910156 149.851562 208.628906 150.382812 C 208.34375 150.914062 208.085938 151.457031 207.855469 152.011719 C 207.625 152.570312 207.425781 153.136719 207.25 153.710938 C 207.074219 154.289062 206.929688 154.871094 206.8125 155.460938 C 206.695312 156.050781 206.605469 156.644531 206.546875 157.246094 C 206.488281 157.84375 206.457031 158.445312 206.457031 159.046875 C 206.457031 159.648438 206.488281 160.246094 206.546875 160.847656 C 206.605469 161.445312 206.695312 162.039062 206.8125 162.628906 C 206.929688 163.21875 207.074219 163.804688 207.25 164.378906 C 207.425781 164.957031 207.625 165.519531 207.855469 166.078125 C 208.085938 166.632812 208.34375 167.175781 208.628906 167.707031 C 208.910156 168.238281 209.222656 168.753906 209.554688 169.253906 C 209.890625 169.753906 210.246094 170.238281 210.628906 170.703125 C 211.011719 171.167969 211.414062 171.613281 211.839844 172.039062 C 212.265625 172.464844 212.710938 172.867188 213.175781 173.25 C 213.640625 173.632812 214.125 173.988281 214.625 174.324219 C 215.125 174.65625 215.640625 174.96875 216.171875 175.25 C 216.703125 175.535156 217.246094 175.792969 217.800781 176.023438 C 218.359375 176.25 218.921875 176.453125 219.5 176.628906 C 220.074219 176.804688 220.660156 176.949219 221.25 177.066406 C 221.839844 177.183594 222.433594 177.273438 223.03125 177.332031 C 223.632812 177.390625 224.230469 177.421875 224.832031 177.421875 C 225.433594 177.421875 226.035156 177.390625 226.632812 177.332031 C 227.234375 177.273438 227.828125 177.183594 228.417969 177.066406 C 229.007812 176.949219 229.589844 176.804688 230.167969 176.628906 C 230.742188 176.453125 231.308594 176.25 231.863281 176.023438 C 232.421875 175.792969 232.964844 175.535156 233.496094 175.25 C 234.027344 174.96875 234.542969 174.65625 235.042969 174.324219 C 235.542969 173.988281 236.023438 173.632812 236.492188 173.25 C 236.957031 172.867188 237.402344 172.464844 237.828125 172.039062 C 238.25 171.613281 238.65625 171.167969 239.039062 170.703125 C 239.417969 170.238281 239.777344 169.753906 240.113281 169.253906 C 240.445312 168.753906 240.753906 168.238281 241.039062 167.707031 C 241.324219 167.175781 241.578125 166.632812 241.808594 166.078125 C 242.039062 165.519531 242.242188 164.957031 242.417969 164.378906 C 242.589844 163.804688 242.738281 163.21875 242.855469 162.628906 C 242.972656 162.039062 243.0625 161.445312 243.121094 160.847656 C 243.179688 160.246094 243.207031 159.648438 243.207031 159.046875 C 243.207031 158.445312 243.179688 157.84375 243.121094 157.246094 C 243.0625 156.644531 242.972656 156.050781 242.855469 155.460938 C 242.738281 154.871094 242.589844 154.289062 242.417969 153.710938 C 242.242188 153.136719 242.039062 152.570312 241.808594 152.011719 C 241.578125 151.457031 241.324219 150.914062 241.039062 150.382812 C 240.753906 149.851562 240.445312 149.335938 240.113281 148.835938 C 239.777344 148.335938 239.417969 147.851562 239.039062 147.386719 C 238.65625 146.921875 238.25 146.476562 237.828125 146.050781 C 237.402344 145.625 236.957031 145.222656 236.492188 144.839844 C 236.023438 144.460938 235.542969 144.101562 235.042969 143.765625 C 234.542969 143.433594 234.027344 143.125 233.496094 142.839844 C 232.964844 142.554688 232.421875 142.300781 231.863281 142.070312 C 231.308594 141.839844 230.742188 141.636719 230.167969 141.460938 C 229.589844 141.285156 229.007812 141.140625 228.417969 141.023438 C 227.828125 140.90625 227.234375 140.816406 226.632812 140.757812 C 226.035156 140.699219 225.433594 140.671875 224.832031 140.671875 Z M 224.832031 140.671875 "/><g clip-rule="nonzero" clip-path="url(#clip1)"><g clip-rule="nonzero" clip-path="url(#clip2)"><g clip-rule="nonzero" clip-path="url(#clip3)"><path style=" stroke:none;fill-rule:nonzero;fill:rgb(100%,34.118652%,34.118652%);fill-opacity:1;" d="M 257.957031 240.898438 L 250.121094 248.734375 C 215.550781 214.167969 159.296875 214.167969 124.726562 248.734375 L 116.890625 240.898438 C 155.785156 202.003906 219.066406 202.007812 257.957031 240.898438 Z M 257.957031 240.898438 "/></g></g></g><path style="fill:none;stroke-width:1;stroke-linecap:round;stroke-linejoin:miter;stroke:rgb(100%,34.118652%,34.118652%);stroke-opacity:1;stroke-miterlimit:4;" d="M 0.500009 0.00000465248 L 3.993215 0.000105852 " transform="matrix(14.096712,5.194946,-5.186829,14.074686,113.053101,129.214914)"/><path style="fill:none;stroke-width:1;stroke-linecap:round;stroke-linejoin:miter;stroke:rgb(100%,34.118652%,34.118652%);stroke-opacity:1;stroke-miterlimit:4;" d="M 0.499928 -0.0000491188 L 3.993292 0.0000578599 " transform="matrix(-14.061095,5.290593,-5.282327,-14.039123,256.427712,128.803614)"/></g></svg>