<?xml version="1.0" encoding="UTF-8"?><svg xmlns="http://www.w3.org/2000/svg" xmlns:xlink="http://www.w3.org/1999/xlink" contentScriptType="text/ecmascript" width="375pt" zoomAndPan="magnify" contentStyleType="text/css" viewBox="0 0 375 374.999991" height="374.999991pt" preserveAspectRatio="xMidYMid meet" version="1.2"><defs><clipPath xml:id="clip1" id="clip1"><path d="M 106 203 L 273 203 L 273 263 L 106 263 Z M 106 203 "/></clipPath><clipPath xml:id="clip2" id="clip2"><path d="M 237.289062 293.066406 L 100.335938 231.882812 L 137.65625 148.339844 L 274.613281 209.523438 Z M 237.289062 293.066406 "/></clipPath><clipPath xml:id="clip3" id="clip3"><path d="M 237.289062 293.066406 L 100.335938 231.882812 L 137.65625 148.339844 L 274.613281 209.523438 Z M 237.289062 293.066406 "/></clipPath></defs><g xml:id="surface1" id="surface1"><path style=" stroke:none;fill-rule:nonzero;fill:rgb(100%,94.119263%,41.958618%);fill-opacity:1;" d="M 187.402344 311.027344 C 154.394531 311.027344 123.316406 298.179688 99.996094 274.808594 C 76.625 251.484375 63.777344 220.40625 63.777344 187.402344 C 63.777344 154.394531 76.625 123.316406 99.996094 99.996094 C 123.316406 76.625 154.394531 63.777344 187.402344 63.777344 C 220.40625 63.777344 251.484375 76.625 274.808594 99.996094 C 298.179688 123.367188 311.027344 154.394531 311.027344 187.402344 C 311.027344 220.40625 298.179688 251.484375 274.808594 274.808594 C 251.484375 298.179688 220.40625 311.027344 187.402344 311.027344 Z M 187.402344 71.1875 C 156.371094 71.1875 127.167969 83.292969 105.230469 105.230469 C 83.292969 127.167969 71.1875 156.371094 71.1875 187.402344 C 71.1875 218.429688 83.292969 247.632812 105.230469 269.570312 C 127.167969 291.507812 156.371094 303.613281 187.402344 303.613281 C 218.429688 303.613281 247.632812 291.507812 269.570312 269.570312 C 291.507812 247.632812 303.613281 218.429688 303.613281 187.402344 C 303.613281 156.371094 291.507812 127.167969 269.570312 105.230469 C 247.632812 83.292969 218.429688 71.1875 187.402344 71.1875 Z M 187.402344 71.1875 "/><path style=" stroke:none;fill-rule:nonzero;fill:rgb(100%,94.119263%,41.958618%);fill-opacity:1;" d="M 118.71875 166.03125 C 117.441406 166.03125 116.167969 165.765625 114.894531 165.234375 C 109.90625 163.109375 107.570312 157.367188 109.691406 152.371094 C 115.265625 139.078125 128.167969 130.519531 142.554688 130.519531 C 156.941406 130.519531 169.839844 139.078125 175.46875 152.371094 C 177.589844 157.367188 175.253906 163.160156 170.265625 165.234375 C 165.273438 167.359375 159.488281 165.023438 157.417969 160.023438 C 154.871094 154.070312 149.03125 150.191406 142.554688 150.191406 C 136.078125 150.191406 130.289062 154.070312 127.742188 160.023438 C 126.203125 163.746094 122.539062 166.03125 118.71875 166.03125 Z M 118.71875 166.03125 "/><path style=" stroke:none;fill-rule:nonzero;fill:rgb(100%,94.119263%,41.958618%);fill-opacity:1;" d="M 208.71875 166.03125 C 207.441406 166.03125 206.167969 165.765625 204.894531 165.234375 C 199.90625 163.109375 197.570312 157.367188 199.691406 152.371094 C 205.265625 139.078125 218.167969 130.519531 232.554688 130.519531 C 246.941406 130.519531 259.839844 139.078125 265.46875 152.371094 C 267.589844 157.367188 265.253906 163.160156 260.265625 165.234375 C 255.273438 167.359375 249.488281 165.023438 247.417969 160.023438 C 244.871094 154.070312 239.03125 150.191406 232.554688 150.191406 C 226.078125 150.191406 220.289062 154.070312 217.742188 160.023438 C 216.203125 163.746094 212.539062 166.03125 208.71875 166.03125 Z M 208.71875 166.03125 "/><g clip-rule="nonzero" clip-path="url(#clip1)"><g clip-rule="nonzero" clip-path="url(#clip2)"><g clip-rule="nonzero" clip-path="url(#clip3)"><path style=" stroke:none;fill-rule:nonzero;fill:rgb(100%,94.119263%,41.958618%);fill-opacity:1;" d="M 231.375 232.710938 C 230.445312 233.335938 229.359375 234.019531 228.429688 234.644531 C 227.234375 235.28125 225.929688 235.867188 224.734375 236.503906 L 224.46875 236.515625 C 223.007812 237.164062 221.5 237.917969 219.726562 238.683594 C 218.265625 239.332031 216.492188 240.101562 214.8125 240.648438 C 213.242188 241.25 211.613281 241.691406 210.140625 242.074219 L 208.355469 242.574219 C 207.621094 242.765625 206.726562 243.015625 205.773438 243.109375 C 204.929688 243.253906 203.820312 243.40625 202.707031 243.5625 C 202.179688 243.585938 201.753906 243.65625 201.226562 243.679688 C 200.695312 243.703125 200.164062 243.722656 199.582031 243.855469 C 198.472656 244.007812 197.414062 244.054688 196.457031 244.148438 C 194.382812 244.132812 192.199219 244.066406 190.175781 243.941406 C 188.679688 243.792969 187.183594 243.644531 185.84375 243.4375 C 184.878906 243.265625 184.023438 243.140625 183.007812 243.078125 C 182.527344 242.992188 182.152344 242.957031 181.621094 242.980469 C 180.875 242.90625 180.125 242.832031 179.378906 242.757812 C 178.414062 242.585938 177.449219 242.414062 176.59375 242.292969 L 175.84375 242.21875 L 175.097656 242.144531 C 174.132812 241.972656 173.167969 241.800781 172.09375 241.582031 C 171.238281 241.460938 170.320312 241.179688 169.511719 240.949219 L 169.402344 240.902344 C 168.378906 240.574219 167.089844 240.257812 165.953125 239.878906 C 165.519531 239.6875 164.929688 239.550781 164.496094 239.359375 C 163.953125 239.117188 163.253906 238.933594 162.710938 238.691406 C 160.554688 237.988281 158.226562 237.078125 155.621094 235.914062 L 155.1875 235.71875 C 153.234375 234.847656 151.171875 233.925781 149.050781 232.847656 C 148.398438 232.558594 147.796875 232.160156 147.144531 231.867188 C 146.710938 231.671875 146.433594 231.421875 146 231.226562 L 145.566406 231.03125 C 144.808594 230.691406 144.203125 230.292969 143.445312 229.953125 C 142.84375 229.554688 142.132812 229.109375 141.527344 228.707031 C 141.144531 228.40625 140.601562 228.164062 140.214844 227.863281 C 139.722656 227.511719 139.179688 227.269531 138.792969 226.964844 C 138.191406 226.566406 137.539062 226.277344 136.9375 225.875 C 136.007812 225.332031 135.128906 224.679688 134.25 224.027344 L 133.476562 223.421875 L 132.984375 223.070312 C 131.996094 222.371094 130.898438 221.621094 129.851562 220.761719 C 128.863281 220.058594 127.921875 219.25 126.765625 218.34375 C 125.992188 217.738281 125.378906 217.074219 124.714844 216.519531 C 124.4375 216.265625 124.164062 216.011719 123.886719 215.757812 C 122.992188 214.839844 121.945312 213.980469 121.003906 213.171875 C 120.453125 212.664062 119.738281 212.214844 119.1875 211.707031 L 118.800781 211.40625 C 118.632812 211.199219 118.414062 211.101562 118.199219 211.007812 C 117.003906 210.472656 115.421875 210.808594 114.503906 211.695312 C 114.191406 211.816406 113.828125 212.042969 113.574219 212.320312 C 112.65625 213.210938 111.691406 214.207031 110.675781 215.316406 C 110.214844 215.757812 109.757812 216.203125 109.457031 216.589844 L 109.042969 216.925781 C 108.632812 217.261719 108.332031 217.648438 108.03125 218.03125 C 107.726562 218.417969 107.316406 218.753906 106.859375 219.199219 C 105.988281 219.980469 105.78125 221.316406 106.261719 222.570312 L 106.394531 223.152344 C 106.527344 223.730469 106.863281 224.140625 107.308594 224.597656 L 107.539062 224.960938 C 107.984375 225.421875 108.378906 225.988281 108.828125 226.445312 C 109.273438 226.90625 109.828125 227.414062 110.164062 227.824219 C 110.550781 228.125 110.996094 228.585938 111.332031 228.996094 L 111.886719 229.503906 C 112.332031 229.964844 112.828125 230.3125 113.210938 230.617188 C 113.378906 230.820312 113.597656 230.917969 113.765625 231.125 C 114.429688 231.679688 115.089844 232.234375 115.753906 232.792969 C 116.585938 233.554688 117.527344 234.363281 118.40625 235.015625 C 119.175781 235.621094 119.949219 236.226562 120.71875 236.828125 C 121.707031 237.53125 122.648438 238.339844 123.585938 239.148438 C 125.359375 240.722656 127.433594 241.90625 129.347656 243.152344 L 129.949219 243.554688 C 130.445312 243.902344 131.097656 244.195312 131.589844 244.546875 C 132.902344 245.390625 134.328125 246.289062 135.796875 247.074219 L 136.121094 247.21875 C 137.808594 248.105469 139.558594 249.144531 141.292969 249.921875 C 141.835938 250.164062 142.488281 250.453125 143.03125 250.695312 C 144.117188 251.179688 145.308594 251.714844 146.347656 252.308594 L 146.996094 252.597656 C 147.648438 252.890625 148.25 253.289062 148.902344 253.578125 C 149.011719 253.628906 149.011719 253.628906 149.117188 253.675781 C 149.988281 254.0625 150.964844 254.5 152.097656 254.875 C 153.988281 255.59375 155.824219 256.152344 157.714844 256.867188 L 158.523438 257.097656 C 159.984375 257.621094 161.226562 258.042969 162.515625 258.359375 C 163.480469 258.53125 164.398438 258.8125 165.46875 259.03125 L 166.265625 258.996094 C 166.855469 259.128906 167.339844 259.214844 167.929688 259.351562 C 169.8125 259.800781 171.851562 260.191406 173.78125 260.535156 C 175.867188 260.816406 177.953125 261.097656 180.039062 261.378906 C 180.414062 261.417969 180.679688 261.40625 181.054688 261.441406 C 186.023438 261.972656 189.96875 262.175781 193.683594 262.015625 C 196.023438 262.023438 198.195312 261.824219 200.257812 261.574219 C 200.789062 261.550781 201.367188 261.421875 201.898438 261.398438 C 202.429688 261.375 202.851562 261.304688 203.382812 261.28125 C 204.492188 261.125 205.496094 260.925781 206.449219 260.828125 L 206.871094 260.757812 L 206.449219 260.828125 C 207.980469 260.605469 209.453125 260.222656 210.878906 259.949219 C 211.613281 259.757812 212.351562 259.566406 213.039062 259.484375 C 215.199219 259.019531 217.40625 258.445312 219.820312 257.703125 C 221.921875 257.082031 224.007812 256.195312 226.410156 255.191406 C 227.980469 254.589844 229.960938 253.65625 232.046875 252.769531 C 233.664062 252.0625 235.378906 251.136719 237.457031 249.984375 C 238.652344 249.351562 239.738281 248.664062 240.824219 247.980469 L 241.898438 247.03125 L 242.261719 246.804688 C 242.9375 246.457031 243.554688 245.949219 244.230469 245.601562 C 244.953125 245.148438 245.621094 244.535156 246.34375 244.078125 L 246.597656 243.800781 L 247.164062 243.40625 C 247.9375 242.839844 248.757812 242.167969 249.582031 241.492188 C 249.738281 241.433594 249.785156 241.324219 249.992188 241.15625 C 250.402344 240.820312 250.765625 240.59375 251.066406 240.207031 L 251.113281 240.101562 C 251.574219 239.65625 252.140625 239.257812 252.707031 238.863281 C 253.890625 237.960938 254.917969 237.121094 256.042969 236.0625 C 256.753906 235.339844 257.359375 234.570312 258.023438 233.957031 C 258.578125 233.296875 259.085938 232.742188 259.75 232.128906 C 260.667969 231.238281 261.417969 230.144531 262.230469 229.207031 L 262.53125 228.820312 C 262.882812 228.328125 263.292969 227.992188 263.640625 227.5 C 264.402344 226.667969 265.105469 225.683594 265.804688 224.695312 C 265.949219 224.371094 266.15625 224.203125 266.300781 223.878906 C 266.398438 223.660156 266.605469 223.492188 266.699219 223.277344 L 266.90625 223.109375 C 267.160156 222.832031 267.304688 222.507812 267.511719 222.339844 C 268.464844 221.074219 269.359375 219.65625 270.253906 218.234375 C 270.652344 217.632812 270.945312 216.984375 271.234375 216.332031 C 271.332031 216.117188 271.429688 215.898438 271.523438 215.683594 L 271.621094 215.464844 C 271.667969 215.359375 271.71875 215.25 271.816406 215.03125 C 272.105469 214.382812 272.238281 213.792969 272.3125 213.046875 C 272.347656 212.671875 272.277344 212.25 272.046875 211.886719 C 271.988281 211.730469 272.035156 211.621094 271.929688 211.574219 C 271.808594 211.261719 271.640625 211.054688 271.519531 210.742188 C 271.230469 210.222656 270.84375 209.917969 270.300781 209.675781 C 270.085938 209.582031 269.917969 209.375 269.75 209.167969 C 269.472656 208.917969 269.300781 208.710938 268.976562 208.566406 C 268.375 208.167969 267.820312 207.660156 267.21875 207.257812 L 266.832031 206.957031 C 266.554688 206.703125 266.167969 206.402344 265.84375 206.253906 C 265.625 206.160156 265.566406 206 265.347656 205.90625 L 265.132812 205.808594 L 264.914062 205.710938 L 264.699219 205.613281 C 264.589844 205.566406 264.421875 205.359375 264.3125 205.3125 C 263.820312 204.960938 263.480469 204.550781 262.9375 204.308594 C 262.070312 203.921875 261.214844 203.796875 260.429688 204.097656 C 259.800781 204.335938 259.28125 204.625 258.882812 205.226562 C 258.679688 205.394531 258.472656 205.5625 258.375 205.78125 C 257.929688 206.488281 257.53125 207.089844 257.082031 207.800781 C 256.9375 208.125 256.683594 208.402344 256.492188 208.835938 C 255.789062 209.824219 255.089844 210.808594 254.183594 211.964844 C 253.371094 212.902344 252.621094 213.996094 251.460938 215.429688 C 250.554688 216.582031 249.542969 217.691406 248.574219 218.6875 C 248.320312 218.964844 248.117188 219.132812 247.863281 219.410156 L 246.738281 220.46875 C 245.613281 221.523438 244.492188 222.582031 243.320312 223.75 C 242.605469 224.472656 241.785156 225.144531 240.964844 225.816406 C 240.144531 226.488281 239.214844 227.113281 238.390625 227.789062 L 238.03125 228.015625 C 236.484375 229.144531 234.734375 230.441406 233.078125 231.523438 C 232.714844 231.75 232.101562 232.253906 231.375 232.710938 Z M 231.375 232.710938 "/></g></g></g></g></svg>