<?xml version="1.0" encoding="UTF-8"?><svg xmlns="http://www.w3.org/2000/svg" xmlns:xlink="http://www.w3.org/1999/xlink" contentScriptType="text/ecmascript" width="375pt" zoomAndPan="magnify" contentStyleType="text/css" viewBox="0 0 375 374.999991" height="374.999991pt" preserveAspectRatio="xMidYMid meet" version="1.2"><defs><clipPath xml:id="clip1" id="clip1"><path d="M 107 208 L 268 208 L 268 251 L 107 251 Z M 107 208 "/></clipPath><clipPath xml:id="clip2" id="clip2"><path d="M 107.539062 242.09375 L 187.621094 162.015625 L 267.699219 242.09375 L 187.621094 322.175781 Z M 107.539062 242.09375 "/></clipPath><clipPath xml:id="clip3" id="clip3"><path d="M 107.539062 242.09375 L 187.621094 162.015625 L 267.699219 242.09375 L 187.621094 322.175781 Z M 107.539062 242.09375 "/></clipPath></defs><g xml:id="surface1" id="surface1"><path style=" stroke:none;fill-rule:nonzero;fill:rgb(26.269531%,1.568604%,78.42865%);fill-opacity:1;" d="M 187.402344 311.027344 C 154.394531 311.027344 123.316406 298.179688 99.996094 274.808594 C 76.625 251.484375 63.777344 220.40625 63.777344 187.402344 C 63.777344 154.394531 76.625 123.316406 99.996094 99.996094 C 123.316406 76.625 154.394531 63.777344 187.402344 63.777344 C 220.40625 63.777344 251.484375 76.625 274.808594 99.996094 C 298.179688 123.367188 311.027344 154.394531 311.027344 187.402344 C 311.027344 220.40625 298.179688 251.484375 274.808594 274.808594 C 251.484375 298.179688 220.40625 311.027344 187.402344 311.027344 Z M 187.402344 71.1875 C 156.371094 71.1875 127.167969 83.292969 105.230469 105.230469 C 83.292969 127.167969 71.1875 156.371094 71.1875 187.402344 C 71.1875 218.429688 83.292969 247.632812 105.230469 269.570312 C 127.167969 291.507812 156.371094 303.613281 187.402344 303.613281 C 218.429688 303.613281 247.632812 291.507812 269.570312 269.570312 C 291.507812 247.632812 303.613281 218.429688 303.613281 187.402344 C 303.613281 156.371094 291.507812 127.167969 269.570312 105.230469 C 247.632812 83.292969 218.429688 71.1875 187.402344 71.1875 Z M 187.402344 71.1875 "/><path style=" stroke:none;fill-rule:nonzero;fill:rgb(26.269531%,1.568604%,78.42865%);fill-opacity:1;" d="M 144.617188 133.425781 C 144.015625 133.425781 143.414062 133.453125 142.816406 133.511719 C 142.214844 133.570312 141.621094 133.660156 141.03125 133.777344 C 140.441406 133.894531 139.859375 134.039062 139.28125 134.214844 C 138.707031 134.390625 138.140625 134.59375 137.585938 134.824219 C 137.027344 135.054688 136.484375 135.308594 135.953125 135.59375 C 135.421875 135.878906 134.90625 136.1875 134.40625 136.519531 C 133.90625 136.855469 133.425781 137.214844 132.957031 137.59375 C 132.492188 137.976562 132.046875 138.378906 131.621094 138.804688 C 131.199219 139.230469 130.792969 139.675781 130.410156 140.140625 C 130.03125 140.605469 129.671875 141.089844 129.335938 141.589844 C 129.003906 142.089844 128.695312 142.605469 128.410156 143.136719 C 128.125 143.667969 127.871094 144.210938 127.640625 144.765625 C 127.410156 145.324219 127.207031 145.890625 127.03125 146.464844 C 126.859375 147.039062 126.710938 147.625 126.59375 148.214844 C 126.476562 148.804688 126.386719 149.398438 126.328125 149.996094 C 126.269531 150.597656 126.242188 151.195312 126.242188 151.800781 C 126.242188 152.402344 126.269531 153 126.328125 153.601562 C 126.386719 154.199219 126.476562 154.792969 126.59375 155.382812 C 126.710938 155.972656 126.859375 156.558594 127.03125 157.132812 C 127.207031 157.707031 127.410156 158.273438 127.640625 158.832031 C 127.871094 159.386719 128.125 159.929688 128.410156 160.460938 C 128.695312 160.992188 129.003906 161.507812 129.335938 162.007812 C 129.671875 162.507812 130.03125 162.992188 130.410156 163.457031 C 130.792969 163.921875 131.199219 164.367188 131.621094 164.792969 C 132.046875 165.21875 132.492188 165.621094 132.957031 166.003906 C 133.425781 166.382812 133.90625 166.742188 134.40625 167.078125 C 134.90625 167.410156 135.421875 167.71875 135.953125 168.003906 C 136.484375 168.289062 137.027344 168.542969 137.585938 168.773438 C 138.140625 169.003906 138.707031 169.207031 139.28125 169.382812 C 139.859375 169.558594 140.441406 169.703125 141.03125 169.820312 C 141.621094 169.9375 142.214844 170.027344 142.816406 170.085938 C 143.414062 170.144531 144.015625 170.175781 144.617188 170.175781 C 145.21875 170.175781 145.816406 170.144531 146.417969 170.085938 C 147.015625 170.027344 147.609375 169.9375 148.199219 169.820312 C 148.789062 169.703125 149.375 169.558594 149.949219 169.382812 C 150.527344 169.207031 151.089844 169.003906 151.648438 168.773438 C 152.203125 168.542969 152.746094 168.289062 153.277344 168.003906 C 153.808594 167.71875 154.324219 167.410156 154.824219 167.078125 C 155.324219 166.742188 155.808594 166.382812 156.273438 166.003906 C 156.738281 165.621094 157.183594 165.21875 157.609375 164.792969 C 158.035156 164.367188 158.4375 163.921875 158.820312 163.457031 C 159.203125 162.992188 159.558594 162.507812 159.894531 162.007812 C 160.230469 161.507812 160.539062 160.992188 160.820312 160.460938 C 161.105469 159.929688 161.363281 159.386719 161.59375 158.832031 C 161.824219 158.273438 162.023438 157.707031 162.199219 157.132812 C 162.375 156.558594 162.519531 155.972656 162.636719 155.382812 C 162.753906 154.792969 162.84375 154.199219 162.902344 153.601562 C 162.960938 153 162.992188 152.402344 162.992188 151.800781 C 162.992188 151.195312 162.960938 150.597656 162.902344 149.996094 C 162.84375 149.398438 162.753906 148.804688 162.636719 148.214844 C 162.519531 147.625 162.375 147.039062 162.199219 146.464844 C 162.023438 145.890625 161.824219 145.324219 161.59375 144.765625 C 161.363281 144.210938 161.105469 143.667969 160.820312 143.136719 C 160.539062 142.605469 160.230469 142.089844 159.894531 141.589844 C 159.558594 141.089844 159.203125 140.605469 158.820312 140.140625 C 158.4375 139.675781 158.035156 139.230469 157.609375 138.804688 C 157.183594 138.378906 156.738281 137.976562 156.273438 137.59375 C 155.808594 137.214844 155.324219 136.855469 154.824219 136.519531 C 154.324219 136.1875 153.808594 135.878906 153.277344 135.59375 C 152.746094 135.308594 152.203125 135.054688 151.648438 134.824219 C 151.089844 134.59375 150.527344 134.390625 149.949219 134.214844 C 149.375 134.039062 148.789062 133.894531 148.199219 133.777344 C 147.609375 133.660156 147.015625 133.570312 146.417969 133.511719 C 145.816406 133.453125 145.21875 133.425781 144.617188 133.425781 Z M 144.617188 133.425781 "/><path style=" stroke:none;fill-rule:nonzero;fill:rgb(26.269531%,1.568604%,78.42865%);fill-opacity:1;" d="M 230.269531 133.425781 C 229.667969 133.425781 229.066406 133.453125 228.46875 133.511719 C 227.867188 133.570312 227.273438 133.660156 226.683594 133.777344 C 226.09375 133.894531 225.511719 134.039062 224.933594 134.214844 C 224.359375 134.390625 223.792969 134.59375 223.234375 134.824219 C 222.679688 135.054688 222.136719 135.308594 221.605469 135.59375 C 221.074219 135.878906 220.558594 136.1875 220.058594 136.519531 C 219.558594 136.855469 219.078125 137.214844 218.609375 137.59375 C 218.144531 137.976562 217.699219 138.378906 217.273438 138.804688 C 216.847656 139.230469 216.445312 139.675781 216.0625 140.140625 C 215.683594 140.605469 215.324219 141.089844 214.988281 141.589844 C 214.65625 142.089844 214.347656 142.605469 214.0625 143.136719 C 213.777344 143.667969 213.523438 144.210938 213.292969 144.765625 C 213.0625 145.324219 212.859375 145.890625 212.683594 146.464844 C 212.507812 147.039062 212.363281 147.625 212.246094 148.214844 C 212.128906 148.804688 212.039062 149.398438 211.980469 149.996094 C 211.921875 150.597656 211.894531 151.195312 211.894531 151.800781 C 211.894531 152.402344 211.921875 153 211.980469 153.601562 C 212.039062 154.199219 212.128906 154.792969 212.246094 155.382812 C 212.363281 155.972656 212.507812 156.558594 212.683594 157.132812 C 212.859375 157.707031 213.0625 158.273438 213.292969 158.832031 C 213.523438 159.386719 213.777344 159.929688 214.0625 160.460938 C 214.347656 160.992188 214.65625 161.507812 214.988281 162.007812 C 215.324219 162.507812 215.683594 162.992188 216.0625 163.457031 C 216.445312 163.921875 216.847656 164.367188 217.273438 164.792969 C 217.699219 165.21875 218.144531 165.621094 218.609375 166.003906 C 219.078125 166.382812 219.558594 166.742188 220.058594 167.078125 C 220.558594 167.410156 221.074219 167.71875 221.605469 168.003906 C 222.136719 168.289062 222.679688 168.542969 223.234375 168.773438 C 223.792969 169.003906 224.359375 169.207031 224.933594 169.382812 C 225.511719 169.558594 226.09375 169.703125 226.683594 169.820312 C 227.273438 169.9375 227.867188 170.027344 228.46875 170.085938 C 229.066406 170.144531 229.667969 170.175781 230.269531 170.175781 C 230.871094 170.175781 231.46875 170.144531 232.070312 170.085938 C 232.667969 170.027344 233.261719 169.9375 233.851562 169.820312 C 234.441406 169.703125 235.027344 169.558594 235.601562 169.382812 C 236.179688 169.207031 236.742188 169.003906 237.300781 168.773438 C 237.855469 168.542969 238.398438 168.289062 238.929688 168.003906 C 239.460938 167.71875 239.976562 167.410156 240.476562 167.078125 C 240.976562 166.742188 241.460938 166.382812 241.925781 166.003906 C 242.390625 165.621094 242.835938 165.21875 243.261719 164.792969 C 243.6875 164.367188 244.089844 163.921875 244.472656 163.457031 C 244.855469 162.992188 245.210938 162.507812 245.546875 162.007812 C 245.878906 161.507812 246.191406 160.992188 246.472656 160.460938 C 246.757812 159.929688 247.015625 159.386719 247.246094 158.832031 C 247.476562 158.273438 247.675781 157.707031 247.851562 157.132812 C 248.027344 156.558594 248.171875 155.972656 248.289062 155.382812 C 248.40625 154.792969 248.496094 154.199219 248.554688 153.601562 C 248.613281 153 248.644531 152.402344 248.644531 151.800781 C 248.644531 151.195312 248.613281 150.597656 248.554688 149.996094 C 248.496094 149.398438 248.40625 148.804688 248.289062 148.214844 C 248.171875 147.625 248.027344 147.039062 247.851562 146.464844 C 247.675781 145.890625 247.476562 145.324219 247.246094 144.765625 C 247.015625 144.210938 246.757812 143.667969 246.472656 143.136719 C 246.191406 142.605469 245.878906 142.089844 245.546875 141.589844 C 245.210938 141.089844 244.855469 140.605469 244.472656 140.140625 C 244.089844 139.675781 243.6875 139.230469 243.261719 138.804688 C 242.835938 138.378906 242.390625 137.976562 241.925781 137.59375 C 241.460938 137.214844 240.976562 136.855469 240.476562 136.519531 C 239.976562 136.1875 239.460938 135.878906 238.929688 135.59375 C 238.398438 135.308594 237.855469 135.054688 237.300781 134.824219 C 236.742188 134.59375 236.179688 134.390625 235.601562 134.214844 C 235.027344 134.039062 234.441406 133.894531 233.851562 133.777344 C 233.261719 133.660156 232.667969 133.570312 232.070312 133.511719 C 231.46875 133.453125 230.871094 133.425781 230.269531 133.425781 Z M 230.269531 133.425781 "/><g clip-rule="nonzero" clip-path="url(#clip1)"><g clip-rule="nonzero" clip-path="url(#clip2)"><g clip-rule="nonzero" clip-path="url(#clip3)"><path style=" stroke:none;fill-rule:nonzero;fill:rgb(26.269531%,1.568604%,78.42865%);fill-opacity:1;" d="M 267.699219 242.09375 L 258.800781 250.992188 C 219.554688 211.746094 155.6875 211.746094 116.4375 250.992188 L 107.539062 242.09375 C 151.699219 197.933594 223.546875 197.941406 267.699219 242.09375 Z M 267.699219 242.09375 "/></g></g></g></g></svg>