<?xml version="1.0" encoding="UTF-8"?><svg xmlns="http://www.w3.org/2000/svg" xmlns:xlink="http://www.w3.org/1999/xlink" contentScriptType="text/ecmascript" width="375pt" zoomAndPan="magnify" contentStyleType="text/css" viewBox="0 0 375 374.999991" height="374.999991pt" preserveAspectRatio="xMidYMid meet" version="1.2"><defs><clipPath xml:id="clip1" id="clip1"><path d="M 218 87 L 284 87 L 284 139 L 218 139 Z M 218 87 "/></clipPath><clipPath xml:id="clip2" id="clip2"><path d="M 220.527344 86.90625 L 292.476562 110.597656 L 282.390625 141.226562 L 210.4375 117.535156 Z M 220.527344 86.90625 "/></clipPath><clipPath xml:id="clip3" id="clip3"><path d="M 220.527344 86.90625 L 292.476562 110.597656 L 282.390625 141.226562 L 210.4375 117.535156 Z M 220.527344 86.90625 "/></clipPath><clipPath xml:id="clip4" id="clip4"><path d="M 91 85 L 152 85 L 152 144 L 91 144 Z M 91 85 "/></clipPath><clipPath xml:id="clip5" id="clip5"><path d="M 91.148438 139.886719 L 127.023438 73.167969 L 155.429688 88.441406 L 119.554688 155.160156 Z M 91.148438 139.886719 "/></clipPath><clipPath xml:id="clip6" id="clip6"><path d="M 91.148438 139.886719 L 127.023438 73.167969 L 155.429688 88.441406 L 119.554688 155.160156 Z M 91.148438 139.886719 "/></clipPath><clipPath xml:id="clip7" id="clip7"><path d="M 122.09375 198 L 252.59375 198 L 252.59375 267.699219 L 122.09375 267.699219 Z M 122.09375 198 "/></clipPath></defs><g xml:id="surface1" id="surface1"><path style=" stroke:none;fill-rule:nonzero;fill:rgb(60.778809%,74.119568%,72.549438%);fill-opacity:1;" d="M 187.402344 311.027344 C 154.394531 311.027344 123.316406 298.179688 99.996094 274.808594 C 76.625 251.484375 63.777344 220.40625 63.777344 187.402344 C 63.777344 154.394531 76.625 123.316406 99.996094 99.996094 C 123.316406 76.625 154.394531 63.777344 187.402344 63.777344 C 220.40625 63.777344 251.484375 76.625 274.808594 99.996094 C 298.179688 123.367188 311.027344 154.394531 311.027344 187.402344 C 311.027344 220.40625 298.179688 251.484375 274.808594 274.808594 C 251.484375 298.179688 220.40625 311.027344 187.402344 311.027344 Z M 187.402344 71.1875 C 156.371094 71.1875 127.167969 83.292969 105.230469 105.230469 C 83.292969 127.167969 71.1875 156.371094 71.1875 187.402344 C 71.1875 218.429688 83.292969 247.632812 105.230469 269.570312 C 127.167969 291.507812 156.371094 303.613281 187.402344 303.613281 C 218.429688 303.613281 247.632812 291.507812 269.570312 269.570312 C 291.507812 247.632812 303.613281 218.429688 303.613281 187.402344 C 303.613281 156.371094 291.507812 127.167969 269.570312 105.230469 C 247.632812 83.292969 218.429688 71.1875 187.402344 71.1875 Z M 187.402344 71.1875 "/><path style=" stroke:none;fill-rule:nonzero;fill:rgb(60.778809%,74.119568%,72.549438%);fill-opacity:1;" d="M 144.019531 125.632812 C 143.34375 125.632812 142.667969 125.675781 141.996094 125.757812 C 141.324219 125.839844 140.65625 125.964844 139.996094 126.128906 C 139.332031 126.296875 138.679688 126.5 138.03125 126.746094 C 137.386719 126.992188 136.75 127.277344 136.125 127.601562 C 135.503906 127.925781 134.890625 128.289062 134.296875 128.6875 C 133.699219 129.085938 133.121094 129.523438 132.558594 129.992188 C 132 130.464844 131.457031 130.96875 130.933594 131.507812 C 130.414062 132.042969 129.914062 132.613281 129.433594 133.210938 C 128.957031 133.8125 128.503906 134.4375 128.074219 135.09375 C 127.648438 135.75 127.246094 136.429688 126.871094 137.132812 C 126.496094 137.835938 126.148438 138.5625 125.828125 139.308594 C 125.511719 140.058594 125.222656 140.824219 124.964844 141.605469 C 124.707031 142.390625 124.476562 143.1875 124.28125 143.996094 C 124.085938 144.808594 123.921875 145.628906 123.789062 146.460938 C 123.660156 147.292969 123.558594 148.128906 123.492188 148.972656 C 123.425781 149.816406 123.394531 150.660156 123.394531 151.507812 C 123.394531 152.355469 123.425781 153.199219 123.492188 154.042969 C 123.558594 154.886719 123.660156 155.726562 123.789062 156.554688 C 123.921875 157.386719 124.085938 158.207031 124.28125 159.019531 C 124.476562 159.828125 124.707031 160.625 124.964844 161.410156 C 125.222656 162.191406 125.511719 162.957031 125.828125 163.707031 C 126.148438 164.453125 126.496094 165.179688 126.871094 165.882812 C 127.246094 166.589844 127.648438 167.269531 128.074219 167.921875 C 128.503906 168.578125 128.957031 169.203125 129.433594 169.804688 C 129.914062 170.402344 130.414062 170.972656 130.933594 171.507812 C 131.457031 172.046875 132 172.550781 132.558594 173.023438 C 133.121094 173.492188 133.699219 173.929688 134.296875 174.328125 C 134.890625 174.726562 135.503906 175.089844 136.125 175.414062 C 136.75 175.738281 137.386719 176.023438 138.03125 176.269531 C 138.679688 176.515625 139.332031 176.71875 139.996094 176.886719 C 140.65625 177.050781 141.324219 177.175781 141.996094 177.257812 C 142.667969 177.339844 143.34375 177.382812 144.019531 177.382812 C 144.695312 177.382812 145.367188 177.339844 146.039062 177.257812 C 146.710938 177.175781 147.378906 177.050781 148.042969 176.886719 C 148.707031 176.71875 149.359375 176.515625 150.007812 176.269531 C 150.652344 176.023438 151.289062 175.738281 151.910156 175.414062 C 152.535156 175.089844 153.144531 174.726562 153.742188 174.328125 C 154.335938 173.929688 154.914062 173.492188 155.476562 173.023438 C 156.039062 172.550781 156.582031 172.046875 157.101562 171.507812 C 157.625 170.972656 158.125 170.402344 158.601562 169.804688 C 159.082031 169.203125 159.535156 168.578125 159.960938 167.921875 C 160.390625 167.269531 160.792969 166.589844 161.167969 165.882812 C 161.542969 165.179688 161.890625 164.453125 162.207031 163.707031 C 162.527344 162.957031 162.816406 162.191406 163.074219 161.410156 C 163.332031 160.625 163.558594 159.828125 163.757812 159.019531 C 163.953125 158.207031 164.117188 157.386719 164.246094 156.554688 C 164.378906 155.726562 164.476562 154.886719 164.542969 154.042969 C 164.609375 153.199219 164.644531 152.355469 164.644531 151.507812 C 164.644531 150.660156 164.609375 149.816406 164.542969 148.972656 C 164.476562 148.128906 164.378906 147.292969 164.246094 146.460938 C 164.117188 145.628906 163.953125 144.808594 163.757812 143.996094 C 163.558594 143.1875 163.332031 142.390625 163.074219 141.605469 C 162.816406 140.824219 162.527344 140.058594 162.207031 139.308594 C 161.890625 138.5625 161.542969 137.835938 161.167969 137.132812 C 160.792969 136.429688 160.390625 135.75 159.960938 135.09375 C 159.535156 134.4375 159.082031 133.8125 158.601562 133.210938 C 158.125 132.613281 157.625 132.042969 157.101562 131.507812 C 156.582031 130.96875 156.039062 130.464844 155.476562 129.992188 C 154.914062 129.523438 154.335938 129.085938 153.742188 128.6875 C 153.144531 128.289062 152.535156 127.925781 151.910156 127.601562 C 151.289062 127.277344 150.652344 126.992188 150.007812 126.746094 C 149.359375 126.5 148.707031 126.296875 148.042969 126.128906 C 147.378906 125.964844 146.710938 125.839844 146.039062 125.757812 C 145.367188 125.675781 144.695312 125.632812 144.019531 125.632812 Z M 144.019531 125.632812 "/><path style=" stroke:none;fill-rule:nonzero;fill:rgb(60.778809%,74.119568%,72.549438%);fill-opacity:1;" d="M 231.171875 125.632812 C 230.496094 125.632812 229.820312 125.675781 229.148438 125.757812 C 228.476562 125.839844 227.808594 125.964844 227.148438 126.128906 C 226.484375 126.296875 225.832031 126.5 225.183594 126.746094 C 224.539062 126.992188 223.902344 127.277344 223.277344 127.601562 C 222.652344 127.925781 222.042969 128.289062 221.449219 128.6875 C 220.851562 129.085938 220.273438 129.523438 219.710938 129.992188 C 219.152344 130.464844 218.609375 130.96875 218.085938 131.507812 C 217.5625 132.042969 217.0625 132.613281 216.585938 133.210938 C 216.109375 133.8125 215.65625 134.4375 215.226562 135.09375 C 214.800781 135.75 214.398438 136.429688 214.023438 137.132812 C 213.648438 137.835938 213.300781 138.5625 212.980469 139.308594 C 212.664062 140.058594 212.375 140.824219 212.117188 141.605469 C 211.855469 142.390625 211.628906 143.1875 211.433594 143.996094 C 211.238281 144.808594 211.074219 145.628906 210.941406 146.460938 C 210.808594 147.292969 210.710938 148.128906 210.644531 148.972656 C 210.578125 149.816406 210.546875 150.660156 210.546875 151.507812 C 210.546875 152.355469 210.578125 153.199219 210.644531 154.042969 C 210.710938 154.886719 210.808594 155.726562 210.941406 156.554688 C 211.074219 157.386719 211.238281 158.207031 211.433594 159.019531 C 211.628906 159.828125 211.855469 160.625 212.117188 161.410156 C 212.375 162.191406 212.664062 162.957031 212.980469 163.707031 C 213.300781 164.453125 213.648438 165.179688 214.023438 165.882812 C 214.398438 166.589844 214.800781 167.269531 215.226562 167.921875 C 215.65625 168.578125 216.109375 169.203125 216.585938 169.804688 C 217.0625 170.402344 217.5625 170.972656 218.085938 171.507812 C 218.609375 172.046875 219.152344 172.550781 219.710938 173.023438 C 220.273438 173.492188 220.851562 173.929688 221.449219 174.328125 C 222.042969 174.726562 222.652344 175.089844 223.277344 175.414062 C 223.902344 175.738281 224.539062 176.023438 225.183594 176.269531 C 225.832031 176.515625 226.484375 176.71875 227.148438 176.886719 C 227.808594 177.050781 228.476562 177.175781 229.148438 177.257812 C 229.820312 177.339844 230.496094 177.382812 231.171875 177.382812 C 231.847656 177.382812 232.519531 177.339844 233.191406 177.257812 C 233.863281 177.175781 234.53125 177.050781 235.195312 176.886719 C 235.855469 176.71875 236.511719 176.515625 237.15625 176.269531 C 237.804688 176.023438 238.441406 175.738281 239.0625 175.414062 C 239.6875 175.089844 240.296875 174.726562 240.894531 174.328125 C 241.488281 173.929688 242.066406 173.492188 242.628906 173.023438 C 243.191406 172.550781 243.734375 172.046875 244.253906 171.507812 C 244.777344 170.972656 245.277344 170.402344 245.753906 169.804688 C 246.234375 169.203125 246.6875 168.578125 247.113281 167.921875 C 247.542969 167.269531 247.945312 166.589844 248.320312 165.882812 C 248.695312 165.179688 249.042969 164.453125 249.359375 163.707031 C 249.679688 162.957031 249.96875 162.191406 250.226562 161.410156 C 250.484375 160.625 250.710938 159.828125 250.90625 159.019531 C 251.105469 158.207031 251.269531 157.386719 251.398438 156.554688 C 251.53125 155.726562 251.628906 154.886719 251.695312 154.042969 C 251.761719 153.199219 251.796875 152.355469 251.796875 151.507812 C 251.796875 150.660156 251.761719 149.816406 251.695312 148.972656 C 251.628906 148.128906 251.53125 147.292969 251.398438 146.460938 C 251.269531 145.628906 251.105469 144.808594 250.90625 143.996094 C 250.710938 143.1875 250.484375 142.390625 250.226562 141.605469 C 249.96875 140.824219 249.679688 140.058594 249.359375 139.308594 C 249.042969 138.5625 248.695312 137.835938 248.320312 137.132812 C 247.945312 136.429688 247.542969 135.75 247.113281 135.09375 C 246.6875 134.4375 246.234375 133.8125 245.753906 133.210938 C 245.277344 132.613281 244.777344 132.042969 244.253906 131.507812 C 243.734375 130.96875 243.191406 130.464844 242.628906 129.992188 C 242.066406 129.523438 241.488281 129.085938 240.894531 128.6875 C 240.296875 128.289062 239.6875 127.925781 239.0625 127.601562 C 238.441406 127.277344 237.804688 126.992188 237.15625 126.746094 C 236.511719 126.5 235.855469 126.296875 235.195312 126.128906 C 234.53125 125.964844 233.863281 125.839844 233.191406 125.757812 C 232.519531 125.675781 231.847656 125.632812 231.171875 125.632812 Z M 231.171875 125.632812 "/><g clip-rule="nonzero" clip-path="url(#clip1)"><g clip-rule="nonzero" clip-path="url(#clip2)"><g clip-rule="nonzero" clip-path="url(#clip3)"><path style=" stroke:none;fill-rule:nonzero;fill:rgb(60.778809%,74.119568%,72.549438%);fill-opacity:1;" d="M 221.894531 87.355469 L 218.53125 97.566406 C 242.003906 105.292969 261.476562 120.351562 274.925781 138.828125 L 283.660156 132.527344 C 268.9375 112.300781 247.644531 95.832031 221.894531 87.355469 Z M 221.894531 87.355469 "/></g></g></g><g clip-rule="nonzero" clip-path="url(#clip4)"><g clip-rule="nonzero" clip-path="url(#clip5)"><g clip-rule="nonzero" clip-path="url(#clip6)"><path style=" stroke:none;fill-rule:nonzero;fill:rgb(60.778809%,74.119568%,72.549438%);fill-opacity:1;" d="M 91.832031 138.617188 L 101.300781 143.707031 C 113.003906 121.945312 131.222656 105.394531 151.761719 95.371094 L 147.082031 85.675781 C 124.597656 96.644531 104.671875 114.742188 91.832031 138.617188 Z M 91.832031 138.617188 "/></g></g></g><g clip-rule="nonzero" clip-path="url(#clip7)"><path style=" stroke:none;fill-rule:nonzero;fill:rgb(60.778809%,74.119568%,72.549438%);fill-opacity:1;" d="M 252.59375 263.566406 C 252.59375 227.53125 223.324219 198.214844 187.34375 198.214844 C 151.363281 198.214844 122.09375 227.53125 122.09375 263.566406 C 122.09375 265.582031 123.722656 267.214844 125.734375 267.214844 L 248.953125 267.214844 C 250.964844 267.214844 252.59375 265.582031 252.59375 263.566406 Z M 129.484375 259.921875 C 131.367188 229.597656 156.597656 205.507812 187.34375 205.507812 C 218.085938 205.507812 243.316406 229.601562 245.203125 259.921875 Z M 129.484375 259.921875 "/></g></g></svg>