<?xml version="1.0" encoding="UTF-8"?><svg xmlns="http://www.w3.org/2000/svg" xmlns:xlink="http://www.w3.org/1999/xlink" contentScriptType="text/ecmascript" width="375pt" zoomAndPan="magnify" contentStyleType="text/css" viewBox="0 0 375 374.999991" height="374.999991pt" preserveAspectRatio="xMidYMid meet" version="1.2"><g xml:id="surface1" id="surface1"><path style=" stroke:none;fill-rule:nonzero;fill:rgb(100%,63.919067%,26.269531%);fill-opacity:1;" d="M 187.402344 311.027344 C 154.394531 311.027344 123.316406 298.179688 99.996094 274.808594 C 76.625 251.484375 63.777344 220.40625 63.777344 187.402344 C 63.777344 154.394531 76.625 123.316406 99.996094 99.996094 C 123.316406 76.625 154.394531 63.777344 187.402344 63.777344 C 220.40625 63.777344 251.484375 76.625 274.808594 99.996094 C 298.179688 123.367188 311.027344 154.394531 311.027344 187.402344 C 311.027344 220.40625 298.179688 251.484375 274.808594 274.808594 C 251.484375 298.179688 220.40625 311.027344 187.402344 311.027344 Z M 187.402344 71.1875 C 156.371094 71.1875 127.167969 83.292969 105.230469 105.230469 C 83.292969 127.167969 71.1875 156.371094 71.1875 187.402344 C 71.1875 218.429688 83.292969 247.632812 105.230469 269.570312 C 127.167969 291.507812 156.371094 303.613281 187.402344 303.613281 C 218.429688 303.613281 247.632812 291.507812 269.570312 269.570312 C 291.507812 247.632812 303.613281 218.429688 303.613281 187.402344 C 303.613281 156.371094 291.507812 127.167969 269.570312 105.230469 C 247.632812 83.292969 218.429688 71.1875 187.402344 71.1875 Z M 187.402344 71.1875 "/><path style=" stroke:none;fill-rule:nonzero;fill:rgb(100%,63.919067%,26.269531%);fill-opacity:1;" d="M 147.332031 121.683594 C 146.730469 121.683594 146.132812 121.710938 145.53125 121.769531 C 144.933594 121.832031 144.339844 121.917969 143.75 122.035156 C 143.160156 122.152344 142.574219 122.300781 142 122.472656 C 141.421875 122.648438 140.859375 122.851562 140.300781 123.082031 C 139.746094 123.3125 139.203125 123.570312 138.671875 123.851562 C 138.140625 124.136719 137.625 124.445312 137.125 124.78125 C 136.625 125.113281 136.140625 125.472656 135.675781 125.855469 C 135.210938 126.234375 134.765625 126.640625 134.339844 127.066406 C 133.914062 127.492188 133.511719 127.9375 133.128906 128.402344 C 132.746094 128.867188 132.390625 129.347656 132.054688 129.847656 C 131.722656 130.351562 131.410156 130.867188 131.128906 131.394531 C 130.84375 131.925781 130.585938 132.46875 130.355469 133.027344 C 130.125 133.582031 129.925781 134.148438 129.75 134.722656 C 129.574219 135.300781 129.429688 135.882812 129.3125 136.472656 C 129.195312 137.0625 129.105469 137.65625 129.046875 138.257812 C 128.988281 138.855469 128.957031 139.457031 128.957031 140.058594 C 128.957031 140.660156 128.988281 141.261719 129.046875 141.859375 C 129.105469 142.457031 129.195312 143.050781 129.3125 143.644531 C 129.429688 144.234375 129.574219 144.816406 129.75 145.390625 C 129.925781 145.96875 130.125 146.535156 130.355469 147.089844 C 130.585938 147.644531 130.84375 148.1875 131.128906 148.71875 C 131.410156 149.25 131.722656 149.765625 132.054688 150.265625 C 132.390625 150.765625 132.746094 151.25 133.128906 151.714844 C 133.511719 152.179688 133.914062 152.625 134.339844 153.050781 C 134.765625 153.476562 135.210938 153.878906 135.675781 154.261719 C 136.140625 154.644531 136.625 155 137.125 155.335938 C 137.625 155.671875 138.140625 155.980469 138.671875 156.261719 C 139.203125 156.546875 139.746094 156.804688 140.300781 157.035156 C 140.859375 157.265625 141.421875 157.46875 142 157.640625 C 142.574219 157.816406 143.160156 157.960938 143.75 158.078125 C 144.339844 158.199219 144.933594 158.285156 145.53125 158.34375 C 146.132812 158.402344 146.730469 158.433594 147.332031 158.433594 C 147.933594 158.433594 148.535156 158.402344 149.132812 158.34375 C 149.734375 158.285156 150.328125 158.199219 150.917969 158.078125 C 151.507812 157.960938 152.089844 157.816406 152.667969 157.640625 C 153.242188 157.46875 153.808594 157.265625 154.363281 157.035156 C 154.921875 156.804688 155.464844 156.546875 155.996094 156.261719 C 156.527344 155.980469 157.042969 155.671875 157.542969 155.335938 C 158.042969 155 158.523438 154.644531 158.992188 154.261719 C 159.457031 153.878906 159.902344 153.476562 160.328125 153.050781 C 160.75 152.625 161.15625 152.179688 161.539062 151.714844 C 161.917969 151.25 162.277344 150.765625 162.613281 150.265625 C 162.945312 149.765625 163.253906 149.25 163.539062 148.71875 C 163.824219 148.1875 164.078125 147.644531 164.308594 147.089844 C 164.539062 146.535156 164.742188 145.96875 164.917969 145.390625 C 165.089844 144.816406 165.238281 144.234375 165.355469 143.644531 C 165.472656 143.050781 165.5625 142.457031 165.621094 141.859375 C 165.679688 141.261719 165.707031 140.660156 165.707031 140.058594 C 165.707031 139.457031 165.679688 138.855469 165.621094 138.257812 C 165.5625 137.65625 165.472656 137.0625 165.355469 136.472656 C 165.238281 135.882812 165.089844 135.300781 164.917969 134.722656 C 164.742188 134.148438 164.539062 133.582031 164.308594 133.027344 C 164.078125 132.46875 163.824219 131.925781 163.539062 131.394531 C 163.253906 130.867188 162.945312 130.351562 162.613281 129.847656 C 162.277344 129.347656 161.917969 128.867188 161.539062 128.402344 C 161.15625 127.9375 160.75 127.492188 160.328125 127.066406 C 159.902344 126.640625 159.457031 126.234375 158.992188 125.855469 C 158.523438 125.472656 158.042969 125.113281 157.542969 124.78125 C 157.042969 124.445312 156.527344 124.136719 155.996094 123.851562 C 155.464844 123.570312 154.921875 123.3125 154.363281 123.082031 C 153.808594 122.851562 153.242188 122.648438 152.667969 122.472656 C 152.089844 122.300781 151.507812 122.152344 150.917969 122.035156 C 150.328125 121.917969 149.734375 121.832031 149.132812 121.769531 C 148.535156 121.710938 147.933594 121.683594 147.332031 121.683594 Z M 147.332031 121.683594 "/><path style=" stroke:none;fill-rule:nonzero;fill:rgb(100%,63.919067%,26.269531%);fill-opacity:1;" d="M 227.550781 121.683594 C 226.949219 121.683594 226.347656 121.710938 225.75 121.769531 C 225.152344 121.832031 224.554688 121.917969 223.964844 122.035156 C 223.375 122.152344 222.792969 122.300781 222.214844 122.472656 C 221.640625 122.648438 221.074219 122.851562 220.519531 123.082031 C 219.964844 123.3125 219.417969 123.570312 218.890625 123.851562 C 218.359375 124.136719 217.84375 124.445312 217.34375 124.78125 C 216.839844 125.113281 216.359375 125.472656 215.894531 125.855469 C 215.429688 126.234375 214.984375 126.640625 214.558594 127.066406 C 214.132812 127.492188 213.726562 127.9375 213.347656 128.402344 C 212.964844 128.867188 212.605469 129.347656 212.273438 129.847656 C 211.9375 130.351562 211.628906 130.867188 211.34375 131.394531 C 211.0625 131.925781 210.804688 132.46875 210.574219 133.027344 C 210.34375 133.582031 210.140625 134.148438 209.96875 134.722656 C 209.792969 135.300781 209.644531 135.882812 209.527344 136.472656 C 209.410156 137.0625 209.324219 137.65625 209.265625 138.257812 C 209.207031 138.855469 209.175781 139.457031 209.175781 140.058594 C 209.175781 140.660156 209.207031 141.261719 209.265625 141.859375 C 209.324219 142.457031 209.410156 143.050781 209.527344 143.644531 C 209.644531 144.234375 209.792969 144.816406 209.96875 145.390625 C 210.140625 145.96875 210.34375 146.535156 210.574219 147.089844 C 210.804688 147.644531 211.0625 148.1875 211.34375 148.71875 C 211.628906 149.25 211.9375 149.765625 212.273438 150.265625 C 212.605469 150.765625 212.964844 151.25 213.347656 151.714844 C 213.726562 152.179688 214.132812 152.625 214.558594 153.050781 C 214.984375 153.476562 215.429688 153.878906 215.894531 154.261719 C 216.359375 154.644531 216.839844 155 217.34375 155.335938 C 217.84375 155.671875 218.359375 155.980469 218.890625 156.261719 C 219.417969 156.546875 219.964844 156.804688 220.519531 157.035156 C 221.074219 157.265625 221.640625 157.46875 222.214844 157.640625 C 222.792969 157.816406 223.375 157.960938 223.964844 158.078125 C 224.554688 158.199219 225.152344 158.285156 225.75 158.34375 C 226.347656 158.402344 226.949219 158.433594 227.550781 158.433594 C 228.152344 158.433594 228.753906 158.402344 229.351562 158.34375 C 229.949219 158.285156 230.546875 158.199219 231.136719 158.078125 C 231.726562 157.960938 232.308594 157.816406 232.882812 157.640625 C 233.460938 157.46875 234.027344 157.265625 234.582031 157.035156 C 235.136719 156.804688 235.683594 156.546875 236.210938 156.261719 C 236.742188 155.980469 237.257812 155.671875 237.757812 155.335938 C 238.257812 155 238.742188 154.644531 239.207031 154.261719 C 239.671875 153.878906 240.117188 153.476562 240.542969 153.050781 C 240.96875 152.625 241.371094 152.179688 241.753906 151.714844 C 242.136719 151.25 242.496094 150.765625 242.828125 150.265625 C 243.164062 149.765625 243.472656 149.25 243.757812 148.71875 C 244.039062 148.1875 244.296875 147.644531 244.527344 147.089844 C 244.757812 146.535156 244.960938 145.96875 245.132812 145.390625 C 245.308594 144.816406 245.457031 144.234375 245.574219 143.644531 C 245.691406 143.050781 245.777344 142.457031 245.835938 141.859375 C 245.894531 141.261719 245.925781 140.660156 245.925781 140.058594 C 245.925781 139.457031 245.894531 138.855469 245.835938 138.257812 C 245.777344 137.65625 245.691406 137.0625 245.574219 136.472656 C 245.457031 135.882812 245.308594 135.300781 245.132812 134.722656 C 244.960938 134.148438 244.757812 133.582031 244.527344 133.027344 C 244.296875 132.46875 244.039062 131.925781 243.757812 131.394531 C 243.472656 130.867188 243.164062 130.351562 242.828125 129.847656 C 242.496094 129.347656 242.136719 128.867188 241.753906 128.402344 C 241.371094 127.9375 240.96875 127.492188 240.542969 127.066406 C 240.117188 126.640625 239.671875 126.234375 239.207031 125.855469 C 238.742188 125.472656 238.257812 125.113281 237.757812 124.78125 C 237.257812 124.445312 236.742188 124.136719 236.210938 123.851562 C 235.683594 123.570312 235.136719 123.3125 234.582031 123.082031 C 234.027344 122.851562 233.460938 122.648438 232.882812 122.472656 C 232.308594 122.300781 231.726562 122.152344 231.136719 122.035156 C 230.546875 121.917969 229.949219 121.832031 229.351562 121.769531 C 228.753906 121.710938 228.152344 121.683594 227.550781 121.683594 Z M 227.550781 121.683594 "/><path style=" stroke:none;fill-rule:nonzero;fill:rgb(100%,63.919067%,26.269531%);fill-opacity:1;" d="M 187.644531 187.5 C 185.851562 187.5 184.0625 187.574219 182.277344 187.71875 C 180.492188 187.867188 178.71875 188.085938 176.960938 188.378906 C 175.203125 188.671875 173.464844 189.035156 171.75 189.46875 C 170.035156 189.90625 168.347656 190.410156 166.691406 190.984375 C 165.035156 191.554688 163.414062 192.195312 161.832031 192.902344 C 160.253906 193.609375 158.714844 194.378906 157.226562 195.210938 C 155.734375 196.042969 154.296875 196.933594 152.910156 197.882812 C 151.523438 198.835938 150.195312 199.839844 148.929688 200.898438 C 147.660156 201.960938 146.457031 203.066406 145.320312 204.226562 C 144.183594 205.382812 143.117188 206.585938 142.121094 207.832031 C 141.125 209.078125 140.203125 210.363281 139.359375 211.683594 C 138.511719 213.003906 137.746094 214.359375 137.058594 215.742188 C 136.375 217.125 135.769531 218.535156 135.25 219.96875 C 134.730469 221.402344 134.292969 222.855469 133.945312 224.324219 C 133.59375 225.792969 133.332031 227.273438 133.15625 228.765625 C 132.980469 230.257812 132.894531 231.75 132.894531 233.25 C 132.894531 234.75 132.980469 236.242188 133.15625 237.734375 C 133.332031 239.226562 133.59375 240.707031 133.945312 242.175781 C 134.292969 243.644531 134.730469 245.097656 135.25 246.53125 C 135.769531 247.964844 136.375 249.375 137.058594 250.757812 C 137.746094 252.140625 138.511719 253.496094 139.359375 254.816406 C 140.203125 256.136719 141.125 257.421875 142.121094 258.667969 C 143.117188 259.914062 144.183594 261.113281 145.320312 262.273438 C 146.457031 263.433594 147.660156 264.539062 148.929688 265.601562 C 150.195312 266.660156 151.523438 267.664062 152.910156 268.613281 C 154.296875 269.566406 155.734375 270.457031 157.226562 271.289062 C 158.714844 272.121094 160.253906 272.890625 161.832031 273.597656 C 163.414062 274.304688 165.035156 274.945312 166.691406 275.515625 C 168.347656 276.089844 170.035156 276.59375 171.75 277.03125 C 173.464844 277.464844 175.203125 277.828125 176.960938 278.121094 C 178.71875 278.414062 180.492188 278.632812 182.277344 278.78125 C 184.0625 278.925781 185.851562 279 187.644531 279 C 189.4375 279 191.226562 278.925781 193.007812 278.78125 C 194.792969 278.632812 196.566406 278.414062 198.324219 278.121094 C 200.082031 277.828125 201.820312 277.464844 203.535156 277.03125 C 205.25 276.59375 206.9375 276.089844 208.59375 275.515625 C 210.25 274.945312 211.871094 274.304688 213.453125 273.597656 C 215.035156 272.890625 216.570312 272.121094 218.058594 271.289062 C 219.550781 270.457031 220.988281 269.566406 222.375 268.613281 C 223.761719 267.664062 225.089844 266.660156 226.355469 265.601562 C 227.625 264.539062 228.828125 263.433594 229.964844 262.273438 C 231.101562 261.113281 232.167969 259.914062 233.164062 258.667969 C 234.160156 257.421875 235.082031 256.136719 235.929688 254.816406 C 236.773438 253.496094 237.539062 252.140625 238.226562 250.757812 C 238.910156 249.375 239.515625 247.964844 240.035156 246.53125 C 240.554688 245.097656 240.992188 243.644531 241.339844 242.175781 C 241.691406 240.707031 241.953125 239.226562 242.128906 237.734375 C 242.304688 236.242188 242.394531 234.75 242.394531 233.25 C 242.394531 231.75 242.304688 230.257812 242.128906 228.765625 C 241.953125 227.273438 241.691406 225.792969 241.339844 224.324219 C 240.992188 222.855469 240.554688 221.402344 240.035156 219.96875 C 239.515625 218.535156 238.910156 217.125 238.226562 215.742188 C 237.539062 214.359375 236.773438 213.003906 235.929688 211.683594 C 235.082031 210.363281 234.160156 209.078125 233.164062 207.832031 C 232.167969 206.585938 231.101562 205.382812 229.964844 204.226562 C 228.828125 203.066406 227.625 201.960938 226.355469 200.898438 C 225.089844 199.839844 223.761719 198.835938 222.375 197.882812 C 220.988281 196.933594 219.550781 196.042969 218.058594 195.210938 C 216.570312 194.378906 215.035156 193.609375 213.453125 192.902344 C 211.871094 192.195312 210.25 191.554688 208.59375 190.984375 C 206.9375 190.410156 205.25 189.90625 203.535156 189.46875 C 201.820312 189.035156 200.082031 188.671875 198.324219 188.378906 C 196.566406 188.085938 194.792969 187.867188 193.007812 187.71875 C 191.226562 187.574219 189.4375 187.5 187.644531 187.5 Z M 187.644531 187.5 "/><path style=" stroke:none;fill-rule:nonzero;fill:rgb(100%,100%,100%);fill-opacity:1;" d="M 187.601562 196.066406 C 186.066406 196.066406 184.53125 196.125 183.003906 196.242188 C 181.476562 196.363281 179.960938 196.542969 178.453125 196.777344 C 176.949219 197.015625 175.460938 197.3125 173.992188 197.664062 C 172.523438 198.015625 171.078125 198.425781 169.660156 198.890625 C 168.242188 199.355469 166.855469 199.875 165.503906 200.449219 C 164.148438 201.023438 162.835938 201.644531 161.558594 202.320312 C 160.28125 202.996094 159.050781 203.722656 157.863281 204.492188 C 156.675781 205.261719 155.539062 206.078125 154.453125 206.9375 C 153.367188 207.796875 152.339844 208.699219 151.363281 209.636719 C 150.390625 210.578125 149.476562 211.554688 148.625 212.566406 C 147.773438 213.574219 146.984375 214.617188 146.261719 215.691406 C 145.535156 216.761719 144.878906 217.859375 144.292969 218.984375 C 143.707031 220.105469 143.1875 221.25 142.742188 222.414062 C 142.296875 223.578125 141.925781 224.753906 141.625 225.949219 C 141.324219 227.140625 141.101562 228.339844 140.949219 229.550781 C 140.800781 230.761719 140.726562 231.972656 140.726562 233.191406 C 140.726562 234.40625 140.800781 235.617188 140.949219 236.828125 C 141.101562 238.039062 141.324219 239.242188 141.625 240.433594 C 141.925781 241.625 142.296875 242.804688 142.742188 243.96875 C 143.1875 245.128906 143.707031 246.273438 144.292969 247.398438 C 144.878906 248.519531 145.535156 249.617188 146.261719 250.691406 C 146.984375 251.761719 147.773438 252.804688 148.625 253.816406 C 149.476562 254.828125 150.390625 255.800781 151.363281 256.742188 C 152.339844 257.683594 153.367188 258.582031 154.453125 259.441406 C 155.539062 260.300781 156.675781 261.117188 157.863281 261.886719 C 159.050781 262.660156 160.28125 263.382812 161.558594 264.058594 C 162.835938 264.734375 164.148438 265.359375 165.503906 265.929688 C 166.855469 266.503906 168.242188 267.023438 169.660156 267.488281 C 171.078125 267.953125 172.523438 268.363281 173.992188 268.714844 C 175.460938 269.070312 176.949219 269.363281 178.453125 269.601562 C 179.960938 269.839844 181.476562 270.015625 183.003906 270.136719 C 184.53125 270.253906 186.066406 270.316406 187.601562 270.316406 C 189.136719 270.316406 190.667969 270.253906 192.195312 270.136719 C 193.722656 270.015625 195.238281 269.839844 196.746094 269.601562 C 198.25 269.363281 199.738281 269.070312 201.207031 268.714844 C 202.675781 268.363281 204.121094 267.953125 205.539062 267.488281 C 206.957031 267.023438 208.34375 266.503906 209.695312 265.929688 C 211.050781 265.359375 212.367188 264.734375 213.640625 264.058594 C 214.917969 263.382812 216.148438 262.660156 217.335938 261.886719 C 218.523438 261.117188 219.660156 260.300781 220.746094 259.441406 C 221.832031 258.582031 222.859375 257.683594 223.835938 256.742188 C 224.808594 255.800781 225.722656 254.828125 226.574219 253.816406 C 227.429688 252.804688 228.214844 251.761719 228.941406 250.691406 C 229.664062 249.617188 230.320312 248.519531 230.90625 247.398438 C 231.496094 246.273438 232.011719 245.128906 232.457031 243.96875 C 232.902344 242.804688 233.273438 241.625 233.574219 240.433594 C 233.875 239.242188 234.097656 238.039062 234.25 236.828125 C 234.398438 235.617188 234.476562 234.40625 234.476562 233.191406 C 234.476562 231.972656 234.398438 230.761719 234.25 229.550781 C 234.097656 228.339844 233.875 227.140625 233.574219 225.949219 C 233.273438 224.753906 232.902344 223.578125 232.457031 222.414062 C 232.011719 221.25 231.496094 220.105469 230.90625 218.984375 C 230.320312 217.859375 229.664062 216.761719 228.941406 215.691406 C 228.214844 214.617188 227.429688 213.574219 226.574219 212.566406 C 225.722656 211.554688 224.808594 210.578125 223.835938 209.636719 C 222.859375 208.699219 221.832031 207.796875 220.746094 206.9375 C 219.660156 206.078125 218.523438 205.261719 217.335938 204.492188 C 216.148438 203.722656 214.917969 202.996094 213.640625 202.320312 C 212.367188 201.644531 211.050781 201.023438 209.695312 200.449219 C 208.34375 199.875 206.957031 199.355469 205.539062 198.890625 C 204.121094 198.425781 202.675781 198.015625 201.207031 197.664062 C 199.738281 197.3125 198.25 197.015625 196.746094 196.777344 C 195.238281 196.542969 193.722656 196.363281 192.195312 196.242188 C 190.667969 196.125 189.136719 196.066406 187.601562 196.066406 Z M 187.601562 196.066406 "/></g></svg>