<?xml version="1.0" encoding="UTF-8"?><svg xmlns="http://www.w3.org/2000/svg" xmlns:xlink="http://www.w3.org/1999/xlink" contentScriptType="text/ecmascript" width="375pt" zoomAndPan="magnify" contentStyleType="text/css" viewBox="0 0 375 374.999991" height="374.999991pt" preserveAspectRatio="xMidYMid meet" version="1.2"><g xml:id="surface1" id="surface1"><path style=" stroke:none;fill-rule:nonzero;fill:rgb(80.389404%,18.818665%,70.588684%);fill-opacity:1;" d="M 187.402344 311.027344 C 154.394531 311.027344 123.316406 298.179688 99.996094 274.808594 C 76.625 251.484375 63.777344 220.40625 63.777344 187.402344 C 63.777344 154.394531 76.625 123.316406 99.996094 99.996094 C 123.316406 76.625 154.394531 63.777344 187.402344 63.777344 C 220.40625 63.777344 251.484375 76.625 274.808594 99.996094 C 298.179688 123.367188 311.027344 154.394531 311.027344 187.402344 C 311.027344 220.40625 298.179688 251.484375 274.808594 274.808594 C 251.484375 298.179688 220.40625 311.027344 187.402344 311.027344 Z M 187.402344 71.1875 C 156.371094 71.1875 127.167969 83.292969 105.230469 105.230469 C 83.292969 127.167969 71.1875 156.371094 71.1875 187.402344 C 71.1875 218.429688 83.292969 247.632812 105.230469 269.570312 C 127.167969 291.507812 156.371094 303.613281 187.402344 303.613281 C 218.429688 303.613281 247.632812 291.507812 269.570312 269.570312 C 291.507812 247.632812 303.613281 218.429688 303.613281 187.402344 C 303.613281 156.371094 291.507812 127.167969 269.570312 105.230469 C 247.632812 83.292969 218.429688 71.1875 187.402344 71.1875 Z M 187.402344 71.1875 "/><path style=" stroke:none;fill-rule:nonzero;fill:rgb(80.389404%,18.818665%,70.588684%);fill-opacity:1;" d="M 166.28125 140.851562 C 167.554688 140.851562 168.828125 141.117188 170.101562 141.648438 C 175.09375 143.773438 177.429688 149.515625 175.304688 154.515625 C 169.730469 167.804688 156.832031 176.363281 142.445312 176.363281 C 128.058594 176.363281 115.15625 167.804688 109.53125 154.515625 C 107.40625 149.515625 109.742188 143.722656 114.734375 141.648438 C 119.722656 139.523438 125.507812 141.859375 127.578125 146.859375 C 130.128906 152.8125 135.96875 156.695312 142.445312 156.695312 C 148.921875 156.695312 154.707031 152.8125 157.253906 146.859375 C 158.792969 143.136719 162.457031 140.851562 166.28125 140.851562 Z M 166.28125 140.851562 "/><path style=" stroke:none;fill-rule:nonzero;fill:rgb(80.389404%,18.818665%,70.588684%);fill-opacity:1;" d="M 256.28125 140.851562 C 257.554688 140.851562 258.828125 141.117188 260.101562 141.648438 C 265.09375 143.773438 267.429688 149.515625 265.304688 154.515625 C 259.730469 167.804688 246.832031 176.363281 232.445312 176.363281 C 218.058594 176.363281 205.15625 167.804688 199.53125 154.515625 C 197.40625 149.515625 199.742188 143.722656 204.730469 141.648438 C 209.722656 139.523438 215.507812 141.859375 217.578125 146.859375 C 220.128906 152.8125 225.96875 156.695312 232.445312 156.695312 C 238.921875 156.695312 244.707031 152.8125 247.253906 146.859375 C 248.792969 143.136719 252.457031 140.851562 256.28125 140.851562 Z M 256.28125 140.851562 "/><path style=" stroke:none;fill-rule:nonzero;fill:rgb(80.389404%,18.818665%,70.588684%);fill-opacity:1;" d="M 187.359375 187.5 C 186.09375 187.5 184.832031 187.5625 183.574219 187.6875 C 182.3125 187.808594 181.066406 187.996094 179.824219 188.242188 C 178.582031 188.488281 177.359375 188.796875 176.148438 189.164062 C 174.9375 189.53125 173.746094 189.957031 172.578125 190.441406 C 171.410156 190.925781 170.265625 191.464844 169.152344 192.0625 C 168.035156 192.65625 166.953125 193.308594 165.898438 194.007812 C 164.847656 194.710938 163.832031 195.464844 162.855469 196.265625 C 161.878906 197.070312 160.941406 197.917969 160.046875 198.8125 C 159.152344 199.707031 158.304688 200.644531 157.5 201.621094 C 156.699219 202.597656 155.945312 203.613281 155.242188 204.667969 C 154.539062 205.71875 153.890625 206.800781 153.296875 207.917969 C 152.699219 209.03125 152.160156 210.175781 151.675781 211.34375 C 151.191406 212.511719 150.765625 213.703125 150.398438 214.914062 C 150.03125 216.125 149.722656 217.347656 149.476562 218.589844 C 149.230469 219.832031 149.042969 221.082031 148.921875 222.339844 C 148.796875 223.597656 148.734375 224.859375 148.734375 226.125 C 148.734375 227.390625 148.796875 228.652344 148.921875 229.910156 C 149.042969 231.167969 149.230469 232.417969 149.476562 233.660156 C 149.722656 234.902344 150.03125 236.125 150.398438 237.335938 C 150.765625 238.546875 151.191406 239.738281 151.675781 240.90625 C 152.160156 242.074219 152.699219 243.21875 153.296875 244.332031 C 153.890625 245.449219 154.539062 246.53125 155.242188 247.582031 C 155.945312 248.636719 156.699219 249.652344 157.5 250.628906 C 158.304688 251.605469 159.152344 252.542969 160.046875 253.4375 C 160.941406 254.332031 161.878906 255.179688 162.855469 255.984375 C 163.832031 256.785156 164.847656 257.539062 165.898438 258.242188 C 166.953125 258.941406 168.035156 259.59375 169.152344 260.1875 C 170.265625 260.785156 171.410156 261.324219 172.578125 261.808594 C 173.746094 262.292969 174.9375 262.71875 176.148438 263.085938 C 177.359375 263.453125 178.582031 263.761719 179.824219 264.007812 C 181.066406 264.253906 182.3125 264.441406 183.574219 264.5625 C 184.832031 264.6875 186.09375 264.75 187.359375 264.75 C 188.625 264.75 189.886719 264.6875 191.144531 264.5625 C 192.402344 264.441406 193.652344 264.253906 194.894531 264.007812 C 196.136719 263.761719 197.359375 263.453125 198.570312 263.085938 C 199.78125 262.71875 200.972656 262.292969 202.140625 261.808594 C 203.308594 261.324219 204.453125 260.785156 205.566406 260.1875 C 206.683594 259.59375 207.765625 258.941406 208.816406 258.242188 C 209.871094 257.539062 210.882812 256.785156 211.863281 255.984375 C 212.839844 255.179688 213.777344 254.332031 214.671875 253.4375 C 215.566406 252.542969 216.414062 251.605469 217.214844 250.628906 C 218.019531 249.652344 218.773438 248.636719 219.476562 247.582031 C 220.175781 246.53125 220.828125 245.449219 221.421875 244.332031 C 222.019531 243.21875 222.558594 242.074219 223.042969 240.90625 C 223.527344 239.738281 223.953125 238.546875 224.320312 237.335938 C 224.6875 236.125 224.996094 234.902344 225.242188 233.660156 C 225.488281 232.417969 225.675781 231.167969 225.796875 229.910156 C 225.921875 228.652344 225.984375 227.390625 225.984375 226.125 C 225.984375 224.859375 225.921875 223.597656 225.796875 222.339844 C 225.675781 221.082031 225.488281 219.832031 225.242188 218.589844 C 224.996094 217.347656 224.6875 216.125 224.320312 214.914062 C 223.953125 213.703125 223.527344 212.511719 223.042969 211.34375 C 222.558594 210.175781 222.019531 209.03125 221.421875 207.917969 C 220.828125 206.800781 220.175781 205.71875 219.476562 204.667969 C 218.773438 203.613281 218.019531 202.597656 217.214844 201.621094 C 216.414062 200.644531 215.566406 199.707031 214.671875 198.8125 C 213.777344 197.917969 212.839844 197.070312 211.863281 196.265625 C 210.882812 195.464844 209.871094 194.710938 208.816406 194.007812 C 207.765625 193.308594 206.683594 192.65625 205.566406 192.0625 C 204.453125 191.464844 203.308594 190.925781 202.140625 190.441406 C 200.972656 189.957031 199.78125 189.53125 198.570312 189.164062 C 197.359375 188.796875 196.136719 188.488281 194.894531 188.242188 C 193.652344 187.996094 192.402344 187.808594 191.144531 187.6875 C 189.886719 187.5625 188.625 187.5 187.359375 187.5 Z M 187.359375 187.5 "/></g></svg>